<svg xmlns="http://www.w3.org/2000/svg" width="50" height="55.943" viewBox="0 0 50 55.943">
  <g id="Group_5276" data-name="Group 5276" transform="translate(-824.086 -986.858)">
    <path id="Path_11831" data-name="Path 11831" d="M837.588,1002.534a2.178,2.178,0,0,0,1.355.467,2.135,2.135,0,0,0,1.323-.463,1.893,1.893,0,0,0,.725-1.492,1.869,1.869,0,0,0-.69-1.447l-5.542-4.668,5.532-4.66a1.89,1.89,0,0,0,.282-2.649,2.052,2.052,0,0,0-.31-.3,2.157,2.157,0,0,0-2.69.02l-7.459,6.113a1.877,1.877,0,0,0-.014,2.95Z" transform="translate(5.095 0)"/>
    <path id="Path_11832" data-name="Path 11832" d="M838.005,1013.465V998.943H831.55v3.494h2.535v11.027Z" transform="translate(7.169 11.607)"/>
    <path id="Path_11833" data-name="Path 11833" d="M838.945,1012.889l.016.01a5.663,5.663,0,0,0,6.166-.01,5.953,5.953,0,0,0,2.109-2.635,10.964,10.964,0,0,0,0-7.887,5.967,5.967,0,0,0-2.119-2.633,5.672,5.672,0,0,0-6.168.01,5.99,5.99,0,0,0-2.107,2.635,10.954,10.954,0,0,0,0,7.887A6.005,6.005,0,0,0,838.945,1012.889Zm4.46-9.673a8.019,8.019,0,0,1,.024,6.15,1.587,1.587,0,0,1-2.158.612,1.6,1.6,0,0,1-.586-.561,8.076,8.076,0,0,1-.01-6.173,1.572,1.572,0,0,1,.939-.729,1.6,1.6,0,0,1,1.792.7Z" transform="translate(11.543 11.496)"/>
    <path id="Path_11834" data-name="Path 11834" d="M872.121,1008.085l-.1-.227-.01,0A24.856,24.856,0,0,0,852.121,993l3.227-2.719a1.884,1.884,0,0,0,.316-2.641,1.859,1.859,0,0,0-.323-.322,2.165,2.165,0,0,0-2.686.018l-7.454,6.109a1.875,1.875,0,0,0-.341,2.631,1.9,1.9,0,0,0,.318.323l7.491,6.134a2.174,2.174,0,0,0,1.351.469,2.14,2.14,0,0,0,1.327-.465,1.894,1.894,0,0,0,.724-1.49,1.873,1.873,0,0,0-.69-1.453l-2.664-2.241a20.754,20.754,0,1,1-22.761,12.372c.1-.222.194-.443.3-.667a2.335,2.335,0,0,0-2.121-3.315h-.006a1.514,1.514,0,0,0-1.357.839c-.239.478-.474.984-.69,1.5a24.987,24.987,0,1,0,46.045,0Z" transform="translate(0 0.003)"/>
  </g>
</svg>
