<svg xmlns="http://www.w3.org/2000/svg" width="50" height="55.894" viewBox="0 0 50 55.894">
  <g id="Group_5277" data-name="Group 5277" transform="translate(-858.173 -988.012)">
    <path id="Path_11835" data-name="Path 11835" d="M872.459,1014.6v-14.509h-6.819v3.493h2.706V1014.6Z" transform="translate(7.175 11.603)"/>
    <path id="Path_11836" data-name="Path 11836" d="M879.372,1000.88l-.014-.008a6.3,6.3,0,0,0-6.514.008,6.067,6.067,0,0,0-2.241,2.63,10.316,10.316,0,0,0,.006,7.906,6.052,6.052,0,0,0,2.251,2.627,6.312,6.312,0,0,0,6.51-.008,6.071,6.071,0,0,0,2.245-2.631,10.309,10.309,0,0,0-.006-7.9A6.05,6.05,0,0,0,879.372,1000.88Zm-1.751,9.63a1.779,1.779,0,0,1-1.108.763,1.8,1.8,0,0,1-1.353-.235,1.85,1.85,0,0,1-.528-.5,7.516,7.516,0,0,1-.031-6.108,1.805,1.805,0,0,1,1.522-.835,1.778,1.778,0,0,1,.961.282,1.811,1.811,0,0,1,.521.492A7.545,7.545,0,0,1,877.621,1010.509Z" transform="translate(11.189 11.487)"/>
    <path id="Path_11837" data-name="Path 11837" d="M872.816,991.414l5.537,4.667-5.516,4.645a1.879,1.879,0,0,0,0,2.951,2.142,2.142,0,0,0,1.341.467,2.266,2.266,0,0,0,1.355-.474l7.457-6.108a1.907,1.907,0,0,0,.724-1.5,1.886,1.886,0,0,0-.708-1.451l-7.49-6.139a2.175,2.175,0,0,0-2.672,0,1.889,1.889,0,0,0-.322,2.645A2,2,0,0,0,872.816,991.414Z" transform="translate(13.4 0.002)"/>
    <path id="Path_11838" data-name="Path 11838" d="M906.209,1009.216l-.943-2.229v.38a1.516,1.516,0,0,0-1.114-.478,2.33,2.33,0,0,0-2.116,3.314c.1.22.2.441.29.663A20.742,20.742,0,1,1,879.587,998.5l-2.639,2.225a1.881,1.881,0,0,0-.31,2.637,2.065,2.065,0,0,0,.314.314,2.153,2.153,0,0,0,1.341.465,2.264,2.264,0,0,0,1.355-.476l7.455-6.106a1.9,1.9,0,0,0,.724-1.5,1.879,1.879,0,0,0-.706-1.453l-7.492-6.137a2.167,2.167,0,0,0-2.667,0,1.878,1.878,0,0,0-.039,2.937l3.251,2.737a24.966,24.966,0,0,0-21.933,26.588,25.078,25.078,0,0,0,24.994,23.173h.02a24.98,24.98,0,0,0,22.955-34.69Z" transform="translate(0)"/>
  </g>
</svg>
