<svg xmlns="http://www.w3.org/2000/svg" width="50" height="61.058" viewBox="0 0 50 61.058">
  <g id="Group_5262" data-name="Group 5262" transform="translate(-902.207 -952.481)">
    <path id="Path_11811" data-name="Path 11811" d="M949.322,965.731H905.091a2.887,2.887,0,0,0-2.885,2.885v29.808a2.886,2.886,0,0,0,2.885,2.885h44.231a2.887,2.887,0,0,0,2.885-2.885V968.616A2.888,2.888,0,0,0,949.322,965.731ZM947.4,996.5H907.015V970.539H947.4Z" transform="translate(0 12.231)"/>
    <path id="Path_11812" data-name="Path 11812" d="M949.322,952.481H905.091a2.887,2.887,0,0,0-2.885,2.885V970.75a2.886,2.886,0,0,0,2.885,2.885h44.231a2.887,2.887,0,0,0,2.885-2.885V955.366A2.888,2.888,0,0,0,949.322,952.481ZM916.87,968.827h-9.856V957.289h9.856Zm16.827,0H920.716V957.289H933.7Zm13.7,0h-9.856V957.289H947.4Z" transform="translate(0 0)"/>
  </g>
</svg>
