<svg xmlns="http://www.w3.org/2000/svg" width="50" height="55.769" viewBox="0 0 50 55.769">
  <g id="Group_5264" data-name="Group 5264" transform="translate(-937.94 -953.731)">
    <path id="Path_11815" data-name="Path 11815" d="M943.074,957.577H977.1a1.923,1.923,0,0,0,0-3.846H943.074a1.923,1.923,0,0,0,0,3.846Z" transform="translate(2.964 0)"/>
    <path id="Path_11816" data-name="Path 11816" d="M977.1,980.731H943.074a1.923,1.923,0,0,0,0,3.846H977.1a1.923,1.923,0,0,0,0-3.846Z" transform="translate(2.964 24.923)"/>
    <path id="Path_11817" data-name="Path 11817" d="M985.055,957.481H940.825a2.888,2.888,0,0,0-2.885,2.885v12.5a2.887,2.887,0,0,0,2.885,2.885h44.231a2.886,2.886,0,0,0,2.885-2.885v-12.5A2.887,2.887,0,0,0,985.055,957.481Zm-42.308,13.462v-8.654h40.385v8.654Z" transform="translate(0 3.462)"/>
    <path id="Path_11818" data-name="Path 11818" d="M985.055,969.481H940.825a2.888,2.888,0,0,0-2.885,2.885v12.5a2.887,2.887,0,0,0,2.885,2.885h44.231a2.886,2.886,0,0,0,2.885-2.885v-12.5A2.887,2.887,0,0,0,985.055,969.481Zm-42.308,13.462v-8.654h40.385v8.654Z" transform="translate(0 14.539)"/>
  </g>
</svg>
