<svg xmlns="http://www.w3.org/2000/svg" width="50" height="60.436" viewBox="0 0 50 60.436">
  <g id="Group_5292" data-name="Group 5292" transform="translate(-763.481 -952.482)">
    <path id="Path_11807" data-name="Path 11807" d="M812.71,975.536v0L790.47,953.29a2.913,2.913,0,0,0-4.027,0l-22.168,22.168a2.848,2.848,0,0,0,4.057,4l20.126-20.126,12.479,12.479v24.073h-24.96V979.995a2.848,2.848,0,0,0-5.7,0v18.733a2.853,2.853,0,0,0,2.848,2.848H803.78a2.854,2.854,0,0,0,2.848-2.848V977.5l1.921,1.921a2.847,2.847,0,1,0,4.161-3.887Z" transform="translate(0)" fill="#999"/>
    <path id="Path_11808" data-name="Path 11808" d="M797.977,980.721H770a2,2,0,1,0,0,4h27.98a2,2,0,0,0,0-4Z" transform="translate(4.51 28.199)" fill="#999"/>
  </g>
</svg>
