<svg xmlns="http://www.w3.org/2000/svg" width="50" height="44.952" viewBox="0 0 50 44.952">
  <g id="Group_5294" data-name="Group 5294" transform="translate(-832.598 -952.481)">
    <path id="Path_11813" data-name="Path 11813" d="M862.531,973.856H840.9a1.923,1.923,0,0,0,0,3.846h21.635a1.923,1.923,0,0,0,0-3.846Z" transform="translate(5.885 19.731)" fill="#999"/>
    <path id="Path_11814" data-name="Path 11814" d="M879.713,952.481H835.483a2.888,2.888,0,0,0-2.885,2.885v29.808a2.887,2.887,0,0,0,2.885,2.885h44.231a2.886,2.886,0,0,0,2.885-2.885V955.366A2.887,2.887,0,0,0,879.713,952.481ZM877.79,983.25H837.406V957.289H877.79Z" transform="translate(0 0)" fill="#999"/>
    <circle id="Ellipse_11071" data-name="Ellipse 11071" cx="4.808" cy="4.808" r="4.808" transform="translate(864.329 961.136)" fill="red"/>
  </g>
</svg>
