<svg xmlns="http://www.w3.org/2000/svg" width="50" height="50.061" viewBox="0 0 50 50.061">
  <g id="Flipvoard" transform="translate(-867.902 -952.481)">
    <path id="Path_9111" data-name="Path 9111" d="M884.017,1002.479H871.152a1.924,1.924,0,0,1-.124-3.846H882.1V956.327H871.748v44.228a1.924,1.924,0,1,1-3.846.124V954.4a1.925,1.925,0,0,1,1.924-1.924h14.2a1.923,1.923,0,0,1,1.924,1.924v46.15a1.922,1.922,0,0,1-1.924,1.924Z" transform="translate(0 0)" fill="#999"/>
    <path id="Path_9112" data-name="Path 9112" d="M906.219,972.306H879.586a1.923,1.923,0,0,1-1.924-1.924V954.4a1.925,1.925,0,0,1,1.924-1.924h26.633a1.923,1.923,0,0,1,1.924,1.924v15.979A1.923,1.923,0,0,1,906.219,972.306Zm-24.711-3.846h22.787V956.327H881.508Z" transform="translate(9.759 0)" fill="#999"/>
    <path id="Path_9113" data-name="Path 9113" d="M892.027,979.4H879.586a1.924,1.924,0,0,1-1.924-1.924V965.059a1.925,1.925,0,0,1,1.924-1.924h12.441a1.923,1.923,0,0,1,1.924,1.924v12.423A1.923,1.923,0,0,1,892.027,979.4Zm-10.52-3.846h8.6v-8.584h-8.6Z" transform="translate(9.759 10.653)" fill="#999"/>
  </g>
</svg>
